name ./resultDataOpenSim/trcMotMarkerGrf/sub06/grf-02-08.mot
datacolumns 19
datarows 22
range 0.97600000 1.06000000
endheader

                time	     ground_force_vx	     ground_force_vy	     ground_force_vz	     ground_force_px	     ground_force_py	     ground_force_pz	   l_ground_force_vx	   l_ground_force_vy	   l_ground_force_vz	   l_ground_force_px	   l_ground_force_py	   l_ground_force_pz	     ground_torque_x	     ground_torque_y	     ground_torque_z	   l_ground_torque_x	   l_ground_torque_y	   l_ground_torque_z	
          0.97600000	          0.00000000	          0.00000000	          0.00000000	          0.00000000	          0.00000000	          0.00000000	         81.82153432	        615.71247950	         26.32688038	          0.06228667	         -0.02500000	          0.00228638	          0.00000000	          0.00000000	          0.00000000	          0.00000000	         -1.86674520	          0.00000000	
          0.98000000	          0.00000000	          0.00000000	          0.00000000	          0.00000000	          0.00000000	          0.00000000	         86.71070755	        636.03143385	         28.33420019	          0.06269216	         -0.02500000	          0.00231688	          0.00000000	          0.00000000	          0.00000000	          0.00000000	         -1.81475388	          0.00000000	
          0.98400000	          0.00000000	          0.00000000	          0.00000000	          0.00000000	          0.00000000	          0.00000000	         92.10199519	        655.66375233	         30.10044560	          0.06312305	         -0.02500000	          0.00238265	          0.00000000	          0.00000000	          0.00000000	          0.00000000	         -1.77032596	          0.00000000	
          0.98800000	          0.00000000	          0.00000000	          0.00000000	          0.00000000	          0.00000000	          0.00000000	         98.02198162	        674.16636190	         31.59105935	          0.06359143	         -0.02500000	          0.00248186	          0.00000000	          0.00000000	          0.00000000	          0.00000000	         -1.73777959	          0.00000000	
          0.99200000	          0.00000000	          0.00000000	          0.00000000	          0.00000000	          0.00000000	          0.00000000	        104.45331283	        691.09745064	         32.78249260	          0.06408814	         -0.02500000	          0.00260342	          0.00000000	          0.00000000	          0.00000000	          0.00000000	         -1.72045394	          0.00000000	
          0.99600000	          0.00000000	          0.00000000	          0.00000000	          0.00000000	          0.00000000	          0.00000000	        111.32409937	        706.11766849	         33.64499402	          0.06461615	         -0.02500000	          0.00274479	          0.00000000	          0.00000000	          0.00000000	          0.00000000	         -1.72023623	          0.00000000	
          1.00000000	          0.00000000	          0.00000000	          0.00000000	          0.00000000	          0.00000000	          0.00000000	        118.50622801	        719.06846030	         34.15368331	          0.06515535	         -0.02500000	          0.00289954	          0.00000000	          0.00000000	          0.00000000	          0.00000000	         -1.73730056	          0.00000000	
          1.00400000	          0.00000000	          0.00000000	          0.00000000	          0.00000000	          0.00000000	          0.00000000	        125.84011442	        729.95319207	         34.31004997	          0.06569482	         -0.02500000	          0.00306673	          0.00000000	          0.00000000	          0.00000000	          0.00000000	         -1.77022984	          0.00000000	
          1.00800000	          0.00000000	          0.00000000	          0.00000000	          0.00000000	          0.00000000	          0.00000000	        133.18298232	        738.79151255	         34.14539073	          0.06627068	         -0.02500000	          0.00326211	          0.00000000	          0.00000000	          0.00000000	          0.00000000	         -1.81639386	          0.00000000	
          1.01200000	          0.00000000	          0.00000000	          0.00000000	          0.00000000	          0.00000000	          0.00000000	        140.44157105	        745.49205046	         33.70649433	          0.06691714	         -0.02500000	          0.00349287	          0.00000000	          0.00000000	          0.00000000	          0.00000000	         -1.87228707	          0.00000000	
          1.01600000	          0.00000000	          0.00000000	          0.00000000	          0.00000000	          0.00000000	          0.00000000	        147.55989931	        749.88691849	         33.04522279	          0.06762264	         -0.02500000	          0.00374576	          0.00000000	          0.00000000	          0.00000000	          0.00000000	         -1.93365201	          0.00000000	
          1.02000000	          0.00000000	          0.00000000	          0.00000000	          0.00000000	          0.00000000	          0.00000000	        154.48817210	        751.84040465	         32.22417464	          0.06835564	         -0.02500000	          0.00401461	          0.00000000	          0.00000000	          0.00000000	          0.00000000	         -1.99547521	          0.00000000	
          1.02400000	          0.00000000	          0.00000000	          0.00000000	          0.00000000	          0.00000000	          0.00000000	        161.17505438	        751.30344158	         31.31765235	          0.06909984	         -0.02500000	          0.00430555	          0.00000000	          0.00000000	          0.00000000	          0.00000000	         -2.05212835	          0.00000000	
          1.02800000	          0.00000000	          0.00000000	          0.00000000	          0.00000000	          0.00000000	          0.00000000	        167.57156399	        748.31407712	         30.38869820	          0.06986654	         -0.02500000	          0.00462695	          0.00000000	          0.00000000	          0.00000000	          0.00000000	         -2.09789892	          0.00000000	
          1.03200000	          0.00000000	          0.00000000	          0.00000000	          0.00000000	          0.00000000	          0.00000000	        173.62536731	        742.95319481	         29.45908703	          0.07067303	         -0.02500000	          0.00498311	          0.00000000	          0.00000000	          0.00000000	          0.00000000	         -2.12786780	          0.00000000	
          1.03600000	          0.00000000	          0.00000000	          0.00000000	          0.00000000	          0.00000000	          0.00000000	        179.28529041	        735.27022005	         28.50289213	          0.07152346	         -0.02500000	          0.00536232	          0.00000000	          0.00000000	          0.00000000	          0.00000000	         -2.13875520	          0.00000000	
          1.04000000	          0.00000000	          0.00000000	          0.00000000	          0.00000000	          0.00000000	          0.00000000	        184.51499515	        725.23601788	         27.47016272	          0.07239109	         -0.02500000	          0.00573180	          0.00000000	          0.00000000	          0.00000000	          0.00000000	         -2.12931560	          0.00000000	
          1.04400000	          0.00000000	          0.00000000	          0.00000000	          0.00000000	          0.00000000	          0.00000000	        189.28293992	        712.75108868	         26.31907778	          0.07323941	         -0.02500000	          0.00606077	          0.00000000	          0.00000000	          0.00000000	          0.00000000	         -2.10015456	          0.00000000	
          1.04800000	          0.00000000	          0.00000000	          0.00000000	          0.00000000	          0.00000000	          0.00000000	        193.52958445	        697.68174551	         25.03106616	          0.07406529	         -0.02500000	          0.00634743	          0.00000000	          0.00000000	          0.00000000	          0.00000000	         -2.05316052	          0.00000000	
          1.05200000	          0.00000000	          0.00000000	          0.00000000	          0.00000000	          0.00000000	          0.00000000	        197.14311110	        679.88163026	         23.59833541	          0.07489128	         -0.02500000	          0.00660992	          0.00000000	          0.00000000	          0.00000000	          0.00000000	         -1.99085238	          0.00000000	
          1.05600000	          0.00000000	          0.00000000	          0.00000000	          0.00000000	          0.00000000	          0.00000000	        199.95253701	        659.17339117	         21.99630437	          0.07572699	         -0.02500000	          0.00686043	          0.00000000	          0.00000000	          0.00000000	          0.00000000	         -1.91585228	          0.00000000	
          1.06000000	         -1.80759409	         10.13621859	          2.72423110	          0.69822249	          0.00000000	          0.11304887	        201.71681881	        635.29158467	         20.17151173	          0.07656554	         -0.02500000	          0.00709901	          0.00000000	          0.14407242	          0.00000000	          0.00000000	         -1.83054471	          0.00000000	
